<svg xmlns="http://www.w3.org/2000/svg" width="798" height="652" fill="none" viewBox="0 0 798 652"><mask id="mask0_785_4081" style="mask-type:alpha" width="816" height="816" x="0" y="0" maskUnits="userSpaceOnUse"><circle cx="408" cy="408" r="408" fill="#D9D9D9"/></mask><g mask="url(#mask0_785_4081)"><line x1="79.347" x2="79.347" y1="-30.367" y2="846.367" stroke="#000" stroke-opacity=".3" stroke-width=".98"/><line x1="161.634" x2="161.634" y1="-30.367" y2="846.367" stroke="#000" stroke-opacity=".3" stroke-width=".98"/><line x1="243.919" x2="243.919" y1="-30.367" y2="846.367" stroke="#000" stroke-opacity=".3" stroke-width=".98"/><line x1="326.205" x2="326.205" y1="-30.367" y2="846.367" stroke="#000" stroke-opacity=".3" stroke-width=".98"/><line x1="408.49" x2="408.49" y1="-30.367" y2="846.367" stroke="#000" stroke-opacity=".3" stroke-width=".98"/><line x1="490.777" x2="490.777" y1="-30.367" y2="846.367" stroke="#000" stroke-opacity=".3" stroke-width=".98"/><line x1="573.062" x2="573.062" y1="-30.367" y2="846.367" stroke="#000" stroke-opacity=".3" stroke-width=".98"/><line x1="737.634" x2="737.634" y1="-30.367" y2="846.367" stroke="#000" stroke-opacity=".3" stroke-width=".98"/><line x1="655.347" x2="655.347" y1="-30.367" y2="846.367" stroke="#000" stroke-opacity=".3" stroke-width=".98"/><line x1="846.367" x2="-30.367" y1="79.347" y2="79.347" stroke="#000" stroke-opacity=".3" stroke-width=".98"/><line x1="846.367" x2="-30.367" y1="161.633" y2="161.633" stroke="#000" stroke-opacity=".3" stroke-width=".98"/><line x1="846.367" x2="-30.367" y1="243.918" y2="243.918" stroke="#000" stroke-opacity=".3" stroke-width=".98"/><line x1="846.367" x2="-30.367" y1="326.204" y2="326.204" stroke="#000" stroke-opacity=".3" stroke-width=".98"/><line x1="846.367" x2="-30.367" y1="408.49" y2="408.49" stroke="#000" stroke-opacity=".3" stroke-width=".98"/><line x1="846.367" x2="-30.367" y1="490.776" y2="490.775" stroke="#000" stroke-opacity=".3" stroke-width=".98"/><line x1="846.367" x2="-30.367" y1="573.061" y2="573.061" stroke="#000" stroke-opacity=".3" stroke-width=".98"/></g></svg>